# xmcd CD database file
# Copyright (C) 1993-1996 Ti Kan
#
# Track frame offsets:
# 150
# 13447
# 25935
# 37227
# 46862
# 58640
# 70722
# 82467
# 96570
# 107837
# 117665
# 129340
# 144740
# 157750
# 168827
# 179370
# 192372
# 202782
# 213125
# 228537
# 239490
# 252212
# 264045
# 274097
# 285650
# 297180
#
# Disc length: 4103 seconds
#
# Revision: 0
# Processed by: cddbd v1.4b41PL1 Copyright (c) Steve Scherf et al.
# Submitted via: inCDius 1.1b5
#
DISCID=8310051a
DTITLE=Ray Price  - Ray Price And The Cherokee Cowboys Disc 4
DYEAR=1900
DGENRE=
TTITLE0=Letters Have No Arms
TTITLE1=I'll Sail My Ship Alone
TTITLE2=A Mansion On The Hill
TTITLE3=I Can't Help It
TTITLE4=Remember Me (I'm The One Who Loves You)
TTITLE5=I Saw My Castles Fall Today
TTITLE6=Let Me Talk To You
TTITLE7=Please Don't Leave Me
TTITLE8=Blues Stay Away From Me
TTITLE9=Pins And Needles (In My Heart)
TTITLE10=I Love You Because
TTITLE11=Many Years Ago
TTITLE12=I'll Be There (When You Get Lonely)
TTITLE13=It's All Your Fault
TTITLE14=My Shoes Keep Walking Back To You
TTITLE15=Faded Love
TTITLE16=Gone
TTITLE17=Bye Bye Love
TTITLE18=Four Walls
TTITLE19=A Fallen Star
TTITLE20=It's All Your Fault
TTITLE21=My Shoes Keep Walking Back To You
TTITLE22=Don't Do This To Me
TTITLE23=Wall Of Tears
TTITLE24=Curtain In The Window
TTITLE25=Talk To Your Conscience
EXTD=
EXTT0=
EXTT1=
EXTT2=
EXTT3=
EXTT4=
EXTT5=
EXTT6=
EXTT7=
EXTT8=
EXTT9=
EXTT10=
EXTT11=
EXTT12=
EXTT13=
EXTT14=
EXTT15=
EXTT16=
EXTT17=
EXTT18=
EXTT19=
EXTT20=
EXTT21=
EXTT22=
EXTT23=
EXTT24=
EXTT25=
PLAYORDER=
